<?xml version="1.0" encoding="UTF-8"?>
<svg version="1.1" xmlns="http://www.w3.org/2000/svg" width="225" height="225">
<path d="M0 0 C74.25 0 148.5 0 225 0 C225 74.25 225 148.5 225 225 C150.75 225 76.5 225 0 225 C0 150.75 0 76.5 0 0 Z " fill="#FEFEFE" transform="translate(0,0)"/>
<path d="M0 0 C0.0701572 15.13397107 0.12302102 30.26793462 0.15543652 45.4020319 C0.17088931 52.4294536 0.19194828 59.45677411 0.22631836 66.48413086 C0.2594733 73.26628515 0.27685514 80.04833426 0.28463173 86.8305645 C0.29017351 89.41771537 0.3009952 92.00486051 0.31719017 94.59196663 C0.33897615 98.2164667 0.34196635 101.84053284 0.34057617 105.46508789 C0.351362 106.53395737 0.36214783 107.60282684 0.3732605 108.7040863 C0.34196632 116.24747444 -0.78715339 121.90114187 -5.8125 127.8125 C-6.27269531 128.37582031 -6.73289062 128.93914062 -7.20703125 129.51953125 C-11.78818821 133.30222948 -17.40179241 133.29386475 -23.08154297 133.2746582 C-23.86936157 133.27976913 -24.65718018 133.28488007 -25.46887207 133.29014587 C-28.0600556 133.30398797 -30.6509715 133.30308906 -33.2421875 133.30078125 C-35.0529083 133.30467137 -36.8636282 133.3090067 -38.67434692 133.31376648 C-42.46538249 133.32121729 -46.25632492 133.32094584 -50.04736328 133.31567383 C-54.89152584 133.30988326 -59.73530553 133.32680573 -64.57940483 133.3500185 C-68.31818855 133.36479286 -72.05688088 133.36562247 -75.79568863 133.36250877 C-77.58096194 133.36302021 -79.36624061 133.36822439 -81.15148544 133.37832069 C-83.65446162 133.39073874 -86.15670245 133.38386155 -88.65966797 133.37231445 C-89.38824005 133.37995819 -90.11681213 133.38760193 -90.86746216 133.39547729 C-96.15183772 133.34193554 -100.13461996 132.06536751 -105 130 C-105 129.34 -105 128.68 -105 128 C-105.598125 127.773125 -106.19625 127.54625 -106.8125 127.3125 C-110.05103728 125.36937763 -111.47047402 122.7132043 -112.57451534 119.14123917 C-113.05021233 116.74730792 -113.12289644 114.55631056 -113.12025452 112.11517334 C-113.12162918 111.13363281 -113.12300385 110.15209229 -113.12442017 109.14080811 C-113.12082489 108.07050354 -113.11722961 107.00019897 -113.11352539 105.89746094 C-113.11367142 104.76546265 -113.11381744 103.63346436 -113.1139679 102.46716309 C-113.11327084 98.72288095 -113.10548804 94.97864846 -113.09765625 91.234375 C-113.09579134 88.63934354 -113.09436778 86.04431172 -113.09336853 83.44927979 C-113.08993958 77.31535805 -113.08205683 71.18145682 -113.07201904 65.04754281 C-113.06083806 58.06330488 -113.05534245 51.0790661 -113.05032361 44.09482145 C-113.03987369 29.72987139 -113.02228661 15.36493633 -113 1 C-98.41428455 0.86956209 -83.82856865 0.73917549 -69.24285221 0.60884857 C-62.47090191 0.54833863 -55.69895176 0.48781192 -48.92700195 0.42724609 C-42.39775567 0.36885097 -35.86850897 0.31050208 -29.33926201 0.25218201 C-26.84206567 0.22986905 -24.34486947 0.20754032 -21.84767342 0.18519592 C-18.36337444 0.15402176 -14.87907498 0.12290253 -11.39477539 0.09179688 C-9.82924423 0.07777077 -9.82924423 0.07777077 -8.23208618 0.0634613 C-7.28832626 0.05504715 -6.34456635 0.046633 -5.37220764 0.03796387 C-4.54720292 0.03058952 -3.7221982 0.02321518 -2.87219334 0.01561737 C-1.91481471 0.00763116 -0.95741193 0 0 0 Z " fill="#FEA604" transform="translate(169,64)"/>
<path d="M0 0 C1.18348022 -0.00525696 2.36696045 -0.01051392 3.58630371 -0.01593018 C7.47246765 -0.02906171 11.35821713 -0.0204154 15.24438477 -0.01025391 C17.9614342 -0.01092346 20.67847642 -0.01518603 23.39552307 -0.01895142 C29.08029613 -0.02439215 34.76495184 -0.01726259 40.44970703 -0.00292969 C46.99585367 0.0133858 53.54171975 0.00810968 60.08785957 -0.0084089 C65.73491972 -0.02208144 71.38189606 -0.0239152 77.02896744 -0.0160929 C80.38999221 -0.01144682 83.75078115 -0.01190631 87.1118145 -0.02070236 C90.86379512 -0.02836707 94.61524607 -0.01664129 98.3671875 0 C99.46206985 -0.00607269 100.55695221 -0.01214539 101.68501282 -0.0184021 C114.52256114 0.08646249 124.49755284 3.34179156 133.93579102 12.07568359 C142.10778296 20.5854941 144.09083718 29.82959457 143.96313477 41.29443359 C143.19536898 52.35026095 138.17663631 60.64899244 130.00610352 67.84521484 C127.09721449 69.83312344 123.99215271 71.03268419 120.74829102 72.38818359 C120.72641724 70.7619104 120.72641724 70.7619104 120.70410156 69.1027832 C120.6458563 65.05639695 120.56862631 61.010552 120.48583984 56.96459961 C120.45271335 55.2179446 120.42464365 53.47118571 120.40185547 51.72436523 C120.3680822 49.20430489 120.31575754 46.68518607 120.26000977 44.16552734 C120.25042488 43.00572609 120.25042488 43.00572609 120.24064636 41.82249451 C120.08642978 36.05528085 119.0613264 31.41914349 115.47107983 26.71454906 C113.09283867 24.8835545 111.51198773 25.01865265 108.52815247 25.02742004 C107.44701675 25.02329605 106.36588104 25.01917206 105.25198364 25.0149231 C104.06587494 25.02570892 102.87976624 25.03649475 101.65771484 25.04760742 C100.40881973 25.04716934 99.15992462 25.04673126 97.8731842 25.04627991 C94.44763911 25.0480133 91.02263473 25.06307042 87.59718537 25.08400178 C84.01774322 25.10274085 80.43829406 25.10451683 76.85881042 25.108078 C70.08022459 25.11740664 63.3017837 25.14203141 56.52326173 25.17212647 C48.80630987 25.20564507 41.08935113 25.22215008 33.37234461 25.23721278 C17.4975761 25.26858033 1.62295224 25.32135664 -14.25170898 25.38818359 C-14.25170898 26.04818359 -14.25170898 26.70818359 -14.25170898 27.38818359 C-15.57170898 27.71818359 -16.89170898 28.04818359 -18.25170898 28.38818359 C-19.40919361 33.05519456 -19.47156482 37.62845458 -19.56811523 42.40771484 C-19.58889633 43.26628586 -19.60967743 44.12485687 -19.63108826 45.00944519 C-19.69623421 47.73978014 -19.75530552 50.47020755 -19.81420898 53.20068359 C-19.85742748 55.05681277 -19.90104282 56.91293276 -19.94506836 58.76904297 C-20.0518796 63.30866284 -20.15324463 67.84837531 -20.25170898 72.38818359 C-28.70017512 69.11689199 -35.44570448 64.01709624 -39.54858398 55.78662109 C-43.5363843 45.99050292 -45.49428323 35.29827609 -41.62670898 25.07568359 C-40.8777594 23.49226423 -40.08588772 21.92840702 -39.25170898 20.38818359 C-38.65036133 19.23382813 -38.65036133 19.23382813 -38.03686523 18.05615234 C-32.8230444 9.18510066 -24.86440349 3.84975714 -15.12080193 1.02119064 C-10.09588194 -0.08745583 -5.12624043 -0.02837989 0 0 Z " fill="#FC7405" transform="translate(62.251708984375,27.61181640625)"/>
<path d="M0 0 C0.7734375 0.00128906 1.546875 0.00257812 2.34375 0.00390625 C5.02970422 0.54401661 5.79961715 1.31833431 7.5 3.4375 C7.89872742 5.39274597 7.89872742 5.39274597 7.93237305 7.63354492 C7.96206429 8.89451241 7.96206429 8.89451241 7.99235535 10.18095398 C7.99874527 11.08416885 8.00513519 11.98738373 8.01171875 12.91796875 C8.02966995 13.84595779 8.04762115 14.77394684 8.06611633 15.73005676 C8.12031291 18.69499157 8.154145 21.65976455 8.1875 24.625 C8.22066482 26.63478819 8.25515369 28.644555 8.29101562 30.65429688 C8.37604479 35.58191465 8.44281138 40.50948364 8.5 45.4375 C9.28375 44.6125 10.0675 43.7875 10.875 42.9375 C13.5 40.4375 13.5 40.4375 15.5 40.4375 C15.5 39.7775 15.5 39.1175 15.5 38.4375 C18.14 38.4375 20.78 38.4375 23.5 38.4375 C23.5 39.0975 23.5 39.7575 23.5 40.4375 C24.16 40.4375 24.82 40.4375 25.5 40.4375 C26.954313 43.34612601 26.88048874 45.2033457 26.5 48.4375 C24.84798388 50.72151517 23.33735172 52.53002256 21.375 54.5 C20.900625 55.00337891 20.42625 55.50675781 19.9375 56.02539062 C13.99701633 62.23078776 8.65166879 67.31932856 -0.25 67.9375 C-6.05761688 67.82447752 -10.40197631 65.50902784 -14.5 61.4375 C-15.20798758 59.78796194 -15.88138606 58.12259318 -16.5 56.4375 C-17.82407669 55.75263275 -19.15909241 55.08879797 -20.5 54.4375 C-23.50719483 51.43030517 -25.32042615 49.55983658 -26 45.3125 C-25.43555075 42.06691682 -24.99712139 40.60167188 -22.5 38.4375 C-19.8125 37.75 -19.8125 37.75 -16.5 38.4375 C-14.42651367 40.03588867 -14.42651367 40.03588867 -12.29296875 41.98046875 C-11.58035889 42.62395264 -10.86774902 43.26743652 -10.13354492 43.93041992 C-9.5944751 44.42775635 -9.05540527 44.92509277 -8.5 45.4375 C-8.48541748 44.21643555 -8.47083496 42.99537109 -8.45581055 41.73730469 C-8.39781435 37.20461828 -8.32058143 32.67242796 -8.23754883 28.14013672 C-8.20430572 26.17895564 -8.17627185 24.21767902 -8.15356445 22.25634766 C-8.12000719 19.43610953 -8.06769101 16.61674635 -8.01171875 13.796875 C-8.00532883 12.92069519 -7.9989389 12.04451538 -7.99235535 11.14178467 C-7.84587864 5.06972724 -7.84587864 5.06972724 -6.1027832 1.88354492 C-3.99919557 -0.01433011 -2.80459752 -0.07011494 0 0 Z " fill="#FDFDFB" transform="translate(112.5,95.5625)"/>
<path d="M0 0 C36.63 0 73.26 0 111 0 C111 1.98 111 3.96 111 6 C59.52 6.495 59.52 6.495 7 7 C6.34 10.63 5.68 14.26 5 18 C4.67 18.33 4.34 18.66 4 19 C3.76924918 20.34747084 3.58846937 21.70377565 3.4375 23.0625 C3.293125 24.361875 3.14875 25.66125 3 27 C3.66 27 4.32 27 5 27 C4.34 30.63 3.68 34.26 3 38 C2.01 38 1.02 38 0 38 C0 25.46 0 12.92 0 0 Z " fill="#FA7F05" transform="translate(57,66)"/>
<path d="M0 0 C1.98 0 3.96 0 6 0 C3.24588499 5.40230252 0.32798372 10.40513675 -5.69262695 12.62373352 C-9.09468933 13.17851249 -12.48085623 13.14735141 -15.91796875 13.14526367 C-17.10889633 13.15030159 -17.10889633 13.15030159 -18.32388306 13.15544128 C-20.94510467 13.16493079 -23.56626229 13.16689322 -26.1875 13.16796875 C-28.01066108 13.17118209 -29.83382189 13.17454623 -31.65698242 13.17805481 C-35.47673134 13.18404062 -39.29645766 13.18589521 -43.11621094 13.18530273 C-48.01230229 13.185201 -52.90824899 13.19886735 -57.80430603 13.21607494 C-61.568651 13.22718752 -65.33296087 13.22922219 -69.09732056 13.22869301 C-70.90264384 13.2298737 -72.70796801 13.23430046 -74.51327515 13.24202538 C-77.03629744 13.25181276 -79.55900397 13.2489525 -82.08203125 13.24291992 C-82.82812653 13.24853943 -83.5742218 13.25415894 -84.34292603 13.25994873 C-88.05509676 13.23737205 -90.84760583 13.0626386 -94 11 C-93.34 10.01 -92.68 9.02 -92 8 C-89.23571827 7.74882512 -86.70283733 7.69129078 -83.94189453 7.76708984 C-82.69288361 7.78347252 -82.69288361 7.78347252 -81.41864014 7.80018616 C-78.65628067 7.83976911 -75.89478824 7.90052139 -73.1328125 7.9609375 C-71.21713507 7.99150771 -69.30143339 8.020592 -67.38571167 8.04824829 C-62.33335548 8.1245009 -57.28147 8.21796042 -52.22949219 8.31585693 C-44.14971664 8.46978314 -36.06951928 8.59880408 -27.98928452 8.72587967 C-25.16403812 8.77291762 -22.33902699 8.82783879 -19.51394653 8.88388062 C-17.78159905 8.91414364 -16.04924853 8.94423314 -14.31689453 8.97412109 C-13.53025421 8.99178024 -12.74361389 9.00943939 -11.93313599 9.02763367 C-8.42989335 9.08250543 -5.36834165 8.94587435 -2 8 C-1.7834375 7.13375 -1.7834375 7.13375 -1.5625 6.25 C-1.04166667 4.16666667 -0.52083333 2.08333333 0 0 Z " fill="#FACE0C" transform="translate(162,184)"/>
<path d="M0 0 C0.99 0.66 1.98 1.32 3 2 C2.67 2.66 2.34 3.32 2 4 C1.79439193 6.33022478 1.63400048 8.66456298 1.5 11 C1.11111111 17.77777778 1.11111111 17.77777778 0 20 C0.66 20 1.32 20 2 20 C1.67 21.65 1.34 23.3 1 25 C1.66 25 2.32 25 3 25 C3 25.99 3 26.98 3 28 C4.175625 28.2165625 4.175625 28.2165625 5.375 28.4375 C8 29 8 29 10 30 C10.625 33.0625 10.625 33.0625 11 36 C15.02871475 37.03595522 16.65055731 36.86988854 21 36 C21 39.96 21 43.92 21 48 C12.52262801 44.6090512 5.84204887 39.70121851 1.703125 31.3984375 C-0.84842308 25.13050417 -2.15093126 19.92678509 -2.1875 13.125 C-2.20167969 11.93132813 -2.21585938 10.73765625 -2.23046875 9.5078125 C-2.00004992 6.00075978 -1.26279461 3.26429911 0 0 Z " fill="#FB8B03" transform="translate(21,52)"/>
<path d="M0 0 C0.33 0 0.66 0 1 0 C1.0501123 0.69150146 1.10022461 1.38300293 1.15185547 2.09545898 C1.38308882 5.21029286 1.62884409 8.32381144 1.875 11.4375 C1.95363281 12.52611328 2.03226563 13.61472656 2.11328125 14.73632812 C2.19707031 15.77080078 2.28085937 16.80527344 2.3671875 17.87109375 C2.44050293 18.82943115 2.51381836 19.78776855 2.58935547 20.77514648 C2.72486816 21.50934814 2.86038086 22.2435498 3 23 C3.66 23.33 4.32 23.66 5 24 C4.67 24.33 4.34 24.66 4 25 C3.95907063 27.33297433 3.95758277 29.66705225 4 32 C4.33 32 4.66 32 5 32 C5 35.33333333 5 38.66666667 5 42 C5.13374357 44.18827244 5.28147171 46.37570353 5.4375 48.5625 C5.51871094 49.73941406 5.59992187 50.91632813 5.68359375 52.12890625 C5.68540891 54.89387374 5.68540891 54.89387374 7 56 C7.14115161 58.67058851 7.04247107 61.32432238 7 64 C3.1286256 62.53154764 1.82506217 60.66506854 0 57 C-0.36076355 54.23478699 -0.36076355 54.23478699 -0.34057617 51.19995117 C-0.34034958 50.05914597 -0.34012299 48.91834076 -0.33988953 47.7429657 C-0.32440567 46.52196671 -0.30892181 45.30096771 -0.29296875 44.04296875 C-0.28872391 42.78486893 -0.28447906 41.5267691 -0.28010559 40.23054504 C-0.26617619 36.89797865 -0.23925765 33.56603592 -0.20599365 30.23364258 C-0.17521552 26.82834237 -0.1615838 23.42297756 -0.14648438 20.01757812 C-0.11342413 13.3448805 -0.06323059 6.67247624 0 0 Z " fill="#FCB803" transform="translate(57,128)"/>
<path d="M0 0 C0.99 0.66 1.98 1.32 3 2 C1.01860775 12.08708784 -3.58372501 18.99744916 -12 25 C-14.31739266 26.2330278 -16.51643204 27.12040301 -19 28 C-19 25.03 -19 22.06 -19 19 C-14.545 19.99 -14.545 19.99 -10 21 C-10.0825 20.0925 -10.165 19.185 -10.25 18.25 C-10 15 -10 15 -8 12.625 C-7.34 12.08875 -6.68 11.5525 -6 11 C-5.01 11.33 -4.02 11.66 -3 12 C-3 11.34 -3 10.68 -3 10 C-4.32 9.67 -5.64 9.34 -7 9 C-3.25 7.875 -3.25 7.875 -1 9 C-0.67 6.03 -0.34 3.06 0 0 Z " fill="#F98D0C" transform="translate(202,72)"/>
<path d="M0 0 C40.92 0 81.84 0 124 0 C123.67 0.99 123.34 1.98 123 3 C120 3 117 3 114 3 C114 2.34 114 1.68 114 1 C76.38 1 38.76 1 0 1 C0 0.67 0 0.34 0 0 Z " fill="#FD690F" transform="translate(54,29)"/>
<path d="M0 0 C0.99 0.66 1.98 1.32 3 2 C2.67 2.66 2.34 3.32 2 4 C1.79439193 6.33022478 1.63400048 8.66456298 1.5 11 C1.11111111 17.77777778 1.11111111 17.77777778 0 20 C0.66 20 1.32 20 2 20 C1.67 21.65 1.34 23.3 1 25 C1.66 25 2.32 25 3 25 C3 25.99 3 26.98 3 28 C3.99 28 4.98 28 6 28 C7.125 32.75 7.125 32.75 6 35 C6.66 35.33 7.32 35.66 8 36 C7.34 36.66 6.68 37.32 6 38 C-1.09040331 27.96693919 -3.11939147 18.26969349 -2 6 C-1.39802729 3.97958586 -0.74938654 1.97049848 0 0 Z " fill="#F97E0E" transform="translate(21,52)"/>
<path d="M0 0 C1.65 0 3.3 0 5 0 C5.77504342 4.39191272 5.93629821 7.66962077 5 12 C5.36856864 14.23167185 5.36856864 14.23167185 6 16 C5.67 15.34 5.34 14.68 5 14 C4.484375 14.33 3.96875 14.66 3.4375 15 C0.21973488 16.32010877 -2.5570528 16.13242105 -6 16 C-5.3503125 15.27296875 -5.3503125 15.27296875 -4.6875 14.53125 C-1.68271664 10.91438113 0.42683307 8.33775317 0.375 3.5 C0.25125 2.345 0.1275 1.19 0 0 Z " fill="#F9B003" transform="translate(138,136)"/>
<path d="M0 0 C2.87455485 2.59637212 4.31446639 4.19331775 5 8 C5.08363974 10.83691625 5.11621679 13.64817989 5.09765625 16.484375 C5.0962413 17.29996887 5.09482635 18.11556274 5.09336853 18.95587158 C5.08778303 21.55395212 5.07523321 24.15194563 5.0625 26.75 C5.05748312 28.51432167 5.05292054 30.27864469 5.04882812 32.04296875 C5.03781835 36.36201256 5.02056369 40.68099154 5 45 C4.67 45 4.34 45 4 45 C3.67 33.12 3.34 21.24 3 9 C2.34 9 1.68 9 1 9 C1 14.28 1 19.56 1 25 C0.67 25 0.34 25 0 25 C-0.22262638 22.27132267 -0.42852324 19.54308042 -0.625 16.8125 C-0.68945312 16.04357422 -0.75390625 15.27464844 -0.8203125 14.48242188 C-1.11996357 10.11875319 -1.09450183 6.98914662 1 3 C0.34 3 -0.32 3 -1 3 C-0.67 2.01 -0.34 1.02 0 0 Z " fill="#FEF0E4" transform="translate(178,55)"/>
<path d="M0 0 C0.33 2.97 0.66 5.94 1 9 C0.01 9 -0.98 9 -2 9 C-3.33996932 10.11347596 -3.33996932 10.11347596 -3.11352539 12.95922852 C-3.10828857 14.25272217 -3.10305176 15.54621582 -3.09765625 16.87890625 C-3.0962413 17.5655687 -3.09482635 18.25223114 -3.09336853 18.95970154 C-3.08775479 21.16067801 -3.07520007 23.36155409 -3.0625 25.5625 C-3.05748676 27.05143083 -3.05292355 28.54036324 -3.04882812 30.02929688 C-3.03778093 33.68623075 -3.02050713 37.34310558 -3 41 C-2.67 41 -2.34 41 -2 41 C-2 43.64 -2 46.28 -2 49 C-2.33 47.68 -2.66 46.36 -3 45 C-3.66 45 -4.32 45 -5 45 C-5.04952523 39.53736689 -5.08577896 34.07486518 -5.10986328 28.61206055 C-5.11990615 26.75461551 -5.13354304 24.89718621 -5.15087891 23.03979492 C-5.17520261 20.36633409 -5.18650033 17.69308274 -5.1953125 15.01953125 C-5.20563507 14.19226028 -5.21595764 13.36498932 -5.22659302 12.51264954 C-5.22741549 8.26349878 -5.12278406 4.81290765 -3 1 C-1 0 -1 0 0 0 Z " fill="#FBF3E8" transform="translate(47,55)"/>
<path d="M0 0 C-0.66 2.64 -1.32 5.28 -2 8 C-2.99 8 -3.98 8 -5 8 C-5 8.99 -5 9.98 -5 11 C-4.34 11.33 -3.68 11.66 -3 12 C-4.65 11.67 -6.3 11.34 -8 11 C-8 11.33 -8 11.66 -8 12 C-9.98 12 -11.96 12 -14 12 C-13.34 11.34 -12.68 10.68 -12 10 C-12.66 9.34 -13.32 8.68 -14 8 C-12.02 7.67 -10.04 7.34 -8 7 C-7.67 6.01 -7.34 5.02 -7 4 C-3.57142857 0 -3.57142857 0 0 0 Z " fill="#FCF9EC" transform="translate(168,188)"/>
<path d="M0 0 C1.65 0 3.3 0 5 0 C6.97094808 4.92737019 7.1799928 8.78020872 7 14 C4.3354186 12.98929671 3.04804128 12.0600516 1.25 9.8125 C-0.27739989 6.37585024 -0.21888362 3.72102151 0 0 Z " fill="#FBC80B" transform="translate(57,178)"/>
<path d="M0 0 C2.58889246 0.52059251 3.49810201 1.42999826 5.15625 3.43359375 C4.82625 4.09359375 4.49625 4.75359375 4.15625 5.43359375 C1.68125 4.44359375 1.68125 4.44359375 -0.84375 3.43359375 C-1.606875 4.25859375 -2.37 5.08359375 -3.15625 5.93359375 C-5.84375 8.43359375 -5.84375 8.43359375 -8.84375 8.43359375 C-9.84673644 5.88053736 -9.97656038 4.77510616 -8.96875 2.18359375 C-6.0214556 -0.24358987 -3.71958658 -0.00619931 0 0 Z " fill="#F9F3E6" transform="translate(114.84375,95.56640625)"/>
<path d="M0 0 C0.33 0 0.66 0 1 0 C1 4.29 1 8.58 1 13 C-6.875 7.25 -6.875 7.25 -8 5 C-7.34 5 -6.68 5 -6 5 C-6 4.34 -6 3.68 -6 3 C-5.195625 2.690625 -4.39125 2.38125 -3.5625 2.0625 C-1.10919595 1.23664655 -1.10919595 1.23664655 0 0 Z " fill="#FAAC12" transform="translate(104,129)"/>
<path d="M0 0 C3.96 0 7.92 0 12 0 C12 4 12 4 11 6 C11.66 6.33 12.32 6.66 13 7 C11.25 7.75 11.25 7.75 9 8 C7.0625 6.25 7.0625 6.25 5 4 C3.34338239 2.98343919 1.67888441 1.97934924 0 1 C0 0.67 0 0.34 0 0 Z " fill="#F9780D" transform="translate(171,49)"/>
<path d="M0 0 C1.04449911 3.13349732 0.93423645 3.98968256 0 7 C-1.051875 6.979375 -2.10375 6.95875 -3.1875 6.9375 C-6.85975123 6.87001107 -6.85975123 6.87001107 -9.8125 7.625 C-10.534375 7.74875 -11.25625 7.8725 -12 8 C-12.66 7.34 -13.32 6.68 -14 6 C-12.68 5.67 -11.36 5.34 -10 5 C-10.66 4.34 -11.32 3.68 -12 3 C-11.30132812 2.86722656 -10.60265625 2.73445312 -9.8828125 2.59765625 C-8.51769531 2.33275391 -8.51769531 2.33275391 -7.125 2.0625 C-6.22007813 1.88847656 -5.31515625 1.71445313 -4.3828125 1.53515625 C-2.00043683 1.10036299 -2.00043683 1.10036299 0 0 Z " fill="#FAC020" transform="translate(122,160)"/>
<path d="M0 0 C3.23356015 1.21258505 4.00856305 2.01284458 6 5 C6.99 5 7.98 5 9 5 C9.99 5.66 10.98 6.32 12 7 C12 8.32 12 9.64 12 11 C6.24079198 8.96733835 1.35727334 6.22242519 -2 1 C-1.34 0.67 -0.68 0.34 0 0 Z " fill="#FB9114" transform="translate(30,89)"/>
<path d="M0 0 C1.98 0 3.96 0 6 0 C3.29076328 5.31427203 0.77135213 8.42148591 -4 12 C-4.66 11.67 -5.32 11.34 -6 11 C-6 10.34 -6 9.68 -6 9 C-4.68 8.67 -3.36 8.34 -2 8 C-1.855625 7.4225 -1.71125 6.845 -1.5625 6.25 C-1.04166667 4.16666667 -0.52083333 2.08333333 0 0 Z " fill="#FBD120" transform="translate(162,184)"/>
<path d="M0 0 C0.66 0 1.32 0 2 0 C2 0.66 2 1.32 2 2 C2.66 2 3.32 2 4 2 C4 2.99 4 3.98 4 5 C4.99 5 5.98 5 7 5 C8.125 9.75 8.125 9.75 7 12 C7.66 12.33 8.32 12.66 9 13 C8.34 13.66 7.68 14.32 7 15 C3.66544904 10.0999919 1.32768975 5.79355528 0 0 Z " fill="#F88E1B" transform="translate(20,75)"/>
<path d="M0 0 C1.0828125 0.37125 1.0828125 0.37125 2.1875 0.75 C2.1875 1.74 2.1875 2.73 2.1875 3.75 C1.0428125 3.9046875 1.0428125 3.9046875 -0.125 4.0625 C-2.84237123 4.51434916 -2.84237123 4.51434916 -4.375 6.3125 C-4.849375 6.786875 -5.32375 7.26125 -5.8125 7.75 C-7.1325 7.75 -8.4525 7.75 -9.8125 7.75 C-8.03380954 3.22242429 -5.15359574 -0.4580974 0 0 Z " fill="#F87517" transform="translate(36.8125,35.25)"/>
<path d="M0 0 C1.485 0.99 1.485 0.99 3 2 C3.1875 5.625 3.1875 5.625 3 9 C2.34 9 1.68 9 1 9 C1 14.28 1 19.56 1 25 C0.67 25 0.34 25 0 25 C-0.22262638 22.27132267 -0.42852324 19.54308042 -0.625 16.8125 C-0.68945312 16.04357422 -0.75390625 15.27464844 -0.8203125 14.48242188 C-1.11996357 10.11875319 -1.09450183 6.98914662 1 3 C0.34 3 -0.32 3 -1 3 C-0.67 2.01 -0.34 1.02 0 0 Z " fill="#FDF9EC" transform="translate(178,55)"/>
<path d="M0 0 C3.66835926 -0.34025361 5.46536373 -0.36623402 8.5546875 1.75 C9.70324219 2.86375 9.70324219 2.86375 10.875 4 C11.65617187 4.7425 12.43734375 5.485 13.2421875 6.25 C13.82226562 6.8275 14.40234375 7.405 15 8 C14.34 8.66 13.68 9.32 13 10 C11 8.625 11 8.625 9 7 C9 6.34 9 5.68 9 5 C8.34 5 7.68 5 7 5 C6.34 4.01 5.68 3.02 5 2 C3.68 2 2.36 2 1 2 C0.67 2.66 0.34 3.32 0 4 C-0.66 4 -1.32 4 -2 4 C-1.34 2.68 -0.68 1.36 0 0 Z " fill="#FBF2E1" transform="translate(90,134)"/>
<path d="M0 0 C0.99 0 1.98 0 3 0 C3.29787234 8.93617021 3.29787234 8.93617021 1 12 C-1.625 14.25 -1.625 14.25 -4 16 C-4.66 15.67 -5.32 15.34 -6 15 C-5.3503125 14.38125 -5.3503125 14.38125 -4.6875 13.75 C-1.51333413 10.45827243 0.42540281 8.27516245 0.375 3.5625 C0.25125 2.386875 0.1275 1.21125 0 0 Z " fill="#FAAF15" transform="translate(138,136)"/>
<path d="M0 0 C5.94 0.99 5.94 0.99 12 2 C12 2.33 12 2.66 12 3 C7.71 3.99 3.42 4.98 -1 6 C-1 3 -1 3 0 0 Z " fill="#FCBA05" transform="translate(105,162)"/>
<path d="M0 0 C0.99 0.33 1.98 0.66 3 1 C3.66666667 2.66666667 4.33333333 4.33333333 5 6 C5.99 6.33 6.98 6.66 8 7 C7.67 7.66 7.34 8.32 7 9 C4.69 9 2.38 9 0 9 C0.66 8.67 1.32 8.34 2 8 C1.855625 7.4225 1.71125 6.845 1.5625 6.25 C1.04166667 4.16666667 0.52083333 2.08333333 0 0 Z " fill="#FBB60F" transform="translate(93,151)"/>
<path d="M0 0 C0 0.66 0 1.32 0 2 C0.66 2 1.32 2 2 2 C2 2.66 2 3.32 2 4 C0.03852126 5.38938077 -1.96166576 6.7260411 -4 8 C-4.6875 5.6875 -4.6875 5.6875 -5 3 C-3.40083326 0.79162689 -2.76966516 0 0 0 Z " fill="#FBAE11" transform="translate(126,132)"/>
<path d="M0 0 C2 3 2 3 2 6 C-0.97 5.505 -0.97 5.505 -4 5 C-4 4.34 -4 3.68 -4 3 C-4.66 2.67 -5.32 2.34 -6 2 C-2.25 0 -2.25 0 0 0 Z " fill="#FAF5E6" transform="translate(190,97)"/>
<path d="M0 0 C0.66 0 1.32 0 2 0 C2 0.66 2 1.32 2 2 C2.763125 1.95875 3.52625 1.9175 4.3125 1.875 C7 2 7 2 10 4 C10 4.66 10 5.32 10 6 C5.71 5.01 1.42 4.02 -3 3 C-2.01 2.01 -1.02 1.02 0 0 Z " fill="#FBEFE4" transform="translate(176,26)"/>
<path d="M0 0 C1.32 0.66 2.64 1.32 4 2 C2.35830472 4.02054804 0.69088222 6.02043058 -1 8 C-1.33 8 -1.66 8 -2 8 C-2.125 5.125 -2.125 5.125 -2 2 C-1.34 1.34 -0.68 0.68 0 0 Z " fill="#F8931B" transform="translate(197,84)"/>
<path d="M0 0 C1.65 0 3.3 0 5 0 C5 0.66 5 1.32 5 2 C5.66 2 6.32 2 7 2 C7.33 2.99 7.66 3.98 8 5 C7.34 5.66 6.68 6.32 6 7 C4.02 4.69 2.04 2.38 0 0 Z " fill="#FCF1DB" transform="translate(88,145)"/>
<path d="M0 0 C2.64 0 5.28 0 8 0 C7.67 1.32 7.34 2.64 7 4 C4.69 3.67 2.38 3.34 0 3 C0 2.01 0 1.02 0 0 Z " fill="#F9A909" transform="translate(88,130)"/>
<path d="M0 0 C2.79724672 2.01052108 3.15065585 4.18168077 4 7.4375 C0.46399535 5.52614614 -1.78972846 3.81107234 -4 0.4375 C-2 -0.5625 -2 -0.5625 0 0 Z " fill="#F99720" transform="translate(32,89.5625)"/>
<path d="M0 0 C1.65 1.65 3.3 3.3 5 5 C3.35 5.33 1.7 5.66 0 6 C-0.66 4.68 -1.32 3.36 -2 2 C-1.34 2 -0.68 2 0 2 C0 1.34 0 0.68 0 0 Z " fill="#F57410" transform="translate(195,40)"/>
<path d="M0 0 C1.32 1.32 2.64 2.64 4 4 C1.08517222 4.80967438 -0.46113217 5.21845993 -3.3125 4.0625 C-3.869375 3.711875 -4.42625 3.36125 -5 3 C-2 1 -2 1 0 0 Z " fill="#F66F0D" transform="translate(190,35)"/>
<path d="M0 0 C0.66 0.33 1.32 0.66 2 1 C1.01 2.485 1.01 2.485 0 4 C0.66 4.33 1.32 4.66 2 5 C1.34 5 0.68 5 0 5 C-0.33 5.99 -0.66 6.98 -1 8 C-2.32 6.35 -3.64 4.7 -5 3 C-2.625 1.4375 -2.625 1.4375 0 0 Z " fill="#FDEDE2" transform="translate(196,32)"/>
<path d="M0 0 C1.98 0 3.96 0 6 0 C5.01 1.98 4.02 3.96 3 6 C1.68 4.68 0.36 3.36 -1 2 C-0.67 1.34 -0.34 0.68 0 0 Z " fill="#FACA17" transform="translate(162,184)"/>
<path d="M0 0 C1.32 0.33 2.64 0.66 4 1 C3.649375 1.598125 3.29875 2.19625 2.9375 2.8125 C1.66695302 5.10813214 1.66695302 5.10813214 3 8 C2.01 8.33 1.02 8.66 0 9 C0 6.03 0 3.06 0 0 Z " fill="#FA8A06" transform="translate(183,91)"/>
<path d="M0 0 C1.98 0 3.96 0 6 0 C6.33 0.66 6.66 1.32 7 2 C3.25 5 3.25 5 1 5 C0.67 3.35 0.34 1.7 0 0 Z " fill="#FDF1EC" transform="translate(29,33)"/>
<path d="M0 0 C0.99 0.33 1.98 0.66 3 1 C0.69 3.31 -1.62 5.62 -4 8 C-4.66 7.01 -5.32 6.02 -6 5 C-5.34 5 -4.68 5 -4 5 C-3.67 4.34 -3.34 3.68 -3 3 C-2.01 2.67 -1.02 2.34 0 2 C0 1.34 0 0.68 0 0 Z " fill="#FCEFD2" transform="translate(130,150)"/>
<path d="M0 0 C1.32 0 2.64 0 4 0 C4.33 0.66 4.66 1.32 5 2 C5.98020375 3.0194119 6.97803008 4.02246356 8 5 C7.34 5.66 6.68 6.32 6 7 C1.125 2.25 1.125 2.25 0 0 Z " fill="#FDEFCC" transform="translate(96,153)"/>
<path d="M0 0 C0.66 0 1.32 0 2 0 C2.33 2.97 2.66 5.94 3 9 C2.01 8.67 1.02 8.34 0 8 C0 5.36 0 2.72 0 0 Z " fill="#FAC200" transform="translate(60,170)"/>
<path d="M0 0 C1.65 1.65 3.3 3.3 5 5 C4.34 5 3.68 5 3 5 C2.67 5.99 2.34 6.98 2 8 C1.34 7.34 0.68 6.68 0 6 C0 4 0 2 0 0 Z " fill="#FAF9F1" transform="translate(25,88)"/>
<path d="M0 0 C2.31 0.33 4.62 0.66 7 1 C7 1.66 7 2.32 7 3 C3.94736336 3.98120464 2.05263664 3.98120464 -1 3 C-0.67 2.01 -0.34 1.02 0 0 Z " fill="#F88119" transform="translate(41,52)"/>
</svg>
